<?xml version="1.0" standalone="no"?><!DOCTYPE svg PUBLIC "-//W3C//DTD SVG 1.1//EN" "http://www.w3.org/Graphics/SVG/1.1/DTD/svg11.dtd"><svg t="1620978758558" class="icon" viewBox="0 0 1024 1024" version="1.1" xmlns="http://www.w3.org/2000/svg" p-id="89517" xmlns:xlink="http://www.w3.org/1999/xlink" width="200" height="200"><defs><style type="text/css"></style></defs><path d="M326.534144 448.361472l-105.868288 28.495872 31.412224 18.036736-79.112192 150.649856s-20.364288 56.387584 3.500032 88.972288c23.84384 32.560128 67.468288 44.76416 67.468288 44.76416s-20.360192-50.593792-8.726528-79.089664c11.643904-28.495872 83.182592-164.616192 83.182592-164.616192l31.995904 16.285696-23.852032-103.498752z" fill="#ffffff" p-id="89518"></path><path d="M500.16256 856.070144V705.804288H300.793856c-29.236224 0-41.012224 17.452032-41.012224 17.452032-18.312192 21.587968-4.369408 56.024064-4.369408 56.024064h162.427904v48.874496l-56.713216 2.112512 139.035648 112.55808v-86.755328z m66.179072-151.10656s230.192128-0.262144 260.726784-4.158464c30.528512-3.915776 64.54784-46.547968 64.54784-46.547968s10.84416 43.987968-5.769216 80.795648c-16.60416 36.775936-75.71456 46.826496-75.71456 46.826496l-162.802688 0.816128V830.2592h54.07744L566.345728 942.824448" fill="#ffffff" p-id="89519"></path><path d="M885.96992 644.274176s-23.107584 29.095936-50.917376 23.778304c0 0-20.992-1.657856-35.381248-27.096064-14.388224-25.453568-90.857472-168.100864-90.857472-168.100864l63.965184-36.175872 113.190912 207.594496z" fill="#ffffff" p-id="89520"></path><path d="M720.13824 421.784576l29.184-105.696256-31.483904 17.90464-103.092224-176.820224s-38.267904-46.163968-78.437376-42.139648c-40.170496 4.027392-72.832 35.403776-72.832 35.403776s53.936128 8.13568 72.593408 32.623616C554.722304 207.552512 649.1136 370.496512 649.1136 370.496512l-30.261248 19.308544 101.285888 31.97952z" fill="#ffffff" p-id="89521"></path><path d="M457.64608 160.33792s36.758528 5.443584 46.062592 32.195584c0 0 9.065472 19.004416-5.781504 44.208128-14.825472 25.155584-122.425344 207.855616-122.425344 207.855616l-63.310848-37.295104L457.64608 160.33792z" fill="#ffffff" p-id="89522"></path></svg>