<?xml version="1.0" standalone="no"?><!DOCTYPE svg PUBLIC "-//W3C//DTD SVG 1.1//EN" "http://www.w3.org/Graphics/SVG/1.1/DTD/svg11.dtd"><svg t="1620978011153" class="icon" viewBox="0 0 1024 1024" version="1.1" xmlns="http://www.w3.org/2000/svg" p-id="37321" xmlns:xlink="http://www.w3.org/1999/xlink" width="200" height="200"><defs><style type="text/css"></style></defs><path d="M842.4 296l-39.2-235.2c-1.6-9.6-9.6-16.4-19.2-16.4H234.8c-9.6 0-17.6 6.8-19.2 16.4L176 296c-0.8 5.6 0.8 11.6 4.4 16 3.6 4.4 9.2 6.8 15.2 6.8h627.6c5.6 0 11.2-2.4 14.8-6.8 3.6-4.4 5.2-10.4 4.4-16z" fill="#66646F" p-id="37322"></path><path d="M837.6 364.8c-3.6-4.4-9.2-6.8-14.8-6.8H195.2c-5.6 0-11.2 2.4-14.8 6.8-3.6 4.4-5.6 10-4.8 15.6l78.4 588.4c1.2 9.6 9.6 17.2 19.6 17.2h470.8c9.6 0 18-7.2 19.6-17.2l78.4-588.4c0.8-5.6-1.2-11.6-4.8-15.6z" fill="#02925F" p-id="37323"></path><path d="M881.6 279.6H136.4c-10.8 0-19.6 8.8-19.6 19.6v78.4c0 10.8 8.8 19.6 19.6 19.6h745.2c10.8 0 19.6-8.8 19.6-19.6V299.2c0-10.8-8.8-19.6-19.6-19.6z" fill="#BDBEC0" p-id="37324"></path><path d="M332.4 44.4h353.2v117.6H332.4V44.4z" fill="#65C49A" p-id="37325"></path><path d="M313.2 201.2h392c10.8 0 19.6-8.8 19.6-19.6V44.4h-39.2v117.6H332.4V44.4h-39.2v137.2c0.4 10.8 8.8 19.6 20 19.6z" fill="#02925F" p-id="37326"></path><path d="M597.6 745.6l2.8 17.6c11.6 4.4 11.2 0.8 22.8-0.8-31.6 52.4-98 77.2-158 54.8-23.6-8.8-32.4-18.8-48.4-29.2-8.4 4.4-15.6 10-19.2 19.2 65.6 63.2 163.6 61.2 226.8-0.4 10.8-10.4 16-20 25.2-30.4l5.6 19.2 19.6-3.2c-0.4-11.2-3.2-17.6-5.6-27.6-3.2-13.2-1.6-18.4-13.2-23.6-21.2-9.2-38-0.4-58.4 4.4z m-82.4-156l13.2-12.8c-5.6-8.4-6.4-6-10.8-15.6 62.4 0.8 109.6 47.6 122.4 98.8 7.2 29.2 0.8 41.2 1.2 68.4l26 6.8c9.6-63.2-0.4-106-31.6-144-25.2-31.2-66-57.2-120.8-59.2 5.2-8 8-8.4 12.8-16.8-4.8-8-5.2-7.6-11.6-14-8.8 4-36.8 26-34.8 44.4 2 20 21.6 38 34 44z m-146 180.4l-21.6-3.2-4.4 17.2c12.4 8.8 42.8 17.6 54.4 8.8 13.6-10.4 24.8-36 21.2-53.2l-16-5.2c-0.4 0.8-1.2 1.2-1.2 2.4l-3.2 6.4c-2.4 5.6-0.8 4.4-4.4 9.6-30-30.8-29.2-155.2 81.2-188.8l-4.4-27.2c-93.2 22-152 127.2-101.6 233.2z" fill="#FFFFFF" p-id="37327"></path></svg>