<?xml version="1.0" standalone="no"?><!DOCTYPE svg PUBLIC "-//W3C//DTD SVG 1.1//EN" "http://www.w3.org/Graphics/SVG/1.1/DTD/svg11.dtd"><svg t="1620978584501" class="icon" viewBox="0 0 1024 1024" version="1.1" xmlns="http://www.w3.org/2000/svg" p-id="88173" xmlns:xlink="http://www.w3.org/1999/xlink" width="200" height="200"><defs><style type="text/css"></style></defs><path d="M726.213555 919.629283a13546.186868 13546.186868 0 0 0-415.396227-0.405736c-47.567698 0.695547-78.905962 41.46234-77.727396 93.551095h570.928302c-3.516377-54.561811-32.710038-92.41117-77.804679-93.126038M313.966611 93.473811c137.138717 1.738868 274.354717 2.067321 411.493434 0.289812C773.588045 93.126038 805.776423 53.518491 803.940951 0.309132h-36.941283c-123.111849 0-246.223698 0-369.335547-0.057962-45.365132 0-90.730264-0.463698-136.076076-0.135245C230.964649 0.347774 227.313026 6.433811 239.678309 36.516226c14.007547 34.081811 39.375698 56.532528 74.288302 56.957585" fill="#ffffff" p-id="88174"></path><path d="M320.245857 344.991396c46.563019 46.659623 93.937509 92.507774 145.002264 142.703095V284.691321c-5.467774 1.603623-9.022792 1.642264-11.090113 3.419773-32.574792 28.16966-32.497509 28.208302-63.797133-2.994717-51.335245-51.238642-102.747774-102.419321-154.063698-153.696603C210.929026 106.032302 197.211291 75.853283 198.621706 39.337057 198.872875 32.787321 197.249932 26.179623 196.341857 18.354717 128.757857 57.730415 118.575819 139.01283 172.152272 194.154264a15281.441811 15281.441811 0 0 0 148.093585 150.817811" fill="#ffffff" p-id="88175"></path><path d="M781.586838 140.403925c-49.577057 45.191245-96.333283 93.319245-143.997585 140.500528-35.550189 35.202415-35.299019 35.376302-73.47683 5.506415-1.139925-0.888755-3.999396 0.309132-7.341887 0.676226v200.935849c8.481811-6.414491 12.03683-8.539774 14.876981-11.379924 69.921811-69.245585 140.152755-138.201358 209.436981-208.065208 33.366943-33.618113 69.825208-65.78717 96.062793-104.332075 35.009208-51.393208 7.998792-126.183849-46.698265-143.36 6.221283 48.823547-12.616453 86.479698-48.862188 119.518189M224.936574 877.664604c64.106264-63.526642 123.575547-132.366491 191.584603-191.198189 57.073509-49.345208 34.139774-106.457358 33.424906-164.245736-19.591245 14.490566-34.31366 31.686038-50.118038 47.838189-81.39834 83.137208-163.646792 165.443623-244.465509 249.160453C101.013253 875.481358 114.51846 965.071698 185.638158 996.950943c-8.810264-49.944151 6.820226-87.097962 39.298416-119.286339M568.575517 533.987019c-3.419774-3.439094-8.192-5.545057-17.65917-11.785661 0 34.217057 1.468377 63.159547-0.463698 91.850868-1.584302 23.80317 6.279245 40.786113 23.088302 57.344 67.197585 66.212226 132.59834 134.259925 199.911849 200.336906 34.390943 33.734038 56.803019 70.90717 48.050717 125.217811 69.400151-33.27034 82.576906-121.933283 28.285585-178.040754-92.797585-95.908226-187.314717-190.116226-281.213585-284.92317M438.585479 759.576151c-5.506415 0.077283-14.973585 12.056151-15.205434 19.166189-0.25117 7.303245 8.539774 15.050868 17.040906 28.304905 7.341887-13.852981 15.553208-22.528 14.606491-29.367547-1.043321-7.399849-10.665057-18.161509-16.441963-18.103547M375.793026 853.146566c-0.038642 6.066717 10.278642 16.499925 17.156831 17.15683 7.477132 0.734189 16.190792-7.573736 30.430188-15.205434-12.906264-8.076075-20.576604-16.596528-27.91849-16.384-7.206642 0.193208-19.649208 9.216-19.668529 14.432604M581.868196 238.360151c-1.217208-7.071396-10.974189-15.186113-18.064905-16.770415-3.670943-0.830792-13.81434 11.669736-13.524529 17.717132 0.328453 7.882868 8.114717 15.36 16.712453 29.715321 7.766943-15.012226 16.036226-23.880453 14.876981-30.662038M505.242083 870.284075c6.627019 0.908075 15.340679-8.249962 29.155019-16.615849-14.104151-7.457811-22.141585-14.876981-30.275623-14.954264-6.105358-0.077283-18.277434 10.278642-17.253434 14.239396 1.777509 6.897509 10.838943 16.326038 18.374038 17.330717M423.418687 234.631245c2.028679 7.264604 9.834264 16.847698 17.311396 18.432 6.356528 1.333132 15.572528-7.303245 30.21766-15.070188-14.026868-8.404528-21.426717-16.171472-29.174339-16.441963-6.317887-0.231849-19.262792 9.795623-18.354717 13.080151M627.214008 838.752604c-3.670943-0.888755-13.891623 11.978868-13.524529 17.948981 0.540981 8.192 8.307925 15.727094 16.499925 29.483472 7.651019-14.297358 16.248755-23.339472 15.128151-30.140378-1.217208-7.283925-11.01283-15.591849-18.103547-17.292075M518.457479 167.549585c0.966038-5.409811-8.153358-13.331321-16.152151-25.116981-7.631698 12.114113-16.519245 20.402717-15.398641 25.793207 1.738868 8.269283 10.394566 14.548528 16.113509 21.677887 5.506415-7.380528 13.930264-14.007547 15.456604-22.354113M567.203743 807.047245c8.153358-0.077283 16.229434-7.477132 30.623397-15.070188-13.659774-8.288604-22.180226-17.350038-28.884529-16.519246-7.496453 0.927396-16.673811 10.201358-18.605886 17.079547-1.120604 3.902792 10.877585 14.58717 16.867018 14.509887" fill="#ffffff" p-id="88176"></path></svg>