<?xml version="1.0" standalone="no"?><!DOCTYPE svg PUBLIC "-//W3C//DTD SVG 1.1//EN" "http://www.w3.org/Graphics/SVG/1.1/DTD/svg11.dtd"><svg t="1620978453482" class="icon" viewBox="0 0 1024 1024" version="1.1" xmlns="http://www.w3.org/2000/svg" p-id="87088" xmlns:xlink="http://www.w3.org/1999/xlink" width="200" height="200"><defs><style type="text/css"></style></defs><path d="M540.28 541.8l79.24-1.73 79.24-1.72-80.96 80.96-80.96 80.96 1.72-79.24z" fill="#ffffff" p-id="87089"></path><path d="M587.543 645.866l56.809-56.809L927.984 872.69l-56.809 56.809zM485.72 536.02l-79.24-1.72-79.24-1.72 80.96 80.96 80.96 80.96-1.72-79.24z" fill="#ffffff" p-id="87090"></path><path d="M154.807 923.739L97.998 866.93 381.63 583.298l56.808 56.809zM540.28 488.09l-1.72-79.24-1.72-79.24 80.96 80.96 80.96 80.96-79.24-1.72z" fill="#ffffff" p-id="87091"></path><path d="M644.358 440.821l-56.809-56.808L871.181 100.38l56.809 56.808zM485.72 488.09l1.72-79.24 1.72-79.24-80.96 80.96-80.96 80.96 79.24-1.72z" fill="#ffffff" p-id="87092"></path><path d="M98.002 157.177l56.808-56.809L438.442 384l-56.808 56.809z" fill="#ffffff" p-id="87093"></path></svg>