<?xml version="1.0" standalone="no"?><!DOCTYPE svg PUBLIC "-//W3C//DTD SVG 1.1//EN" "http://www.w3.org/Graphics/SVG/1.1/DTD/svg11.dtd"><svg t="1626058378824" class="icon" viewBox="0 0 1024 1024" version="1.1" xmlns="http://www.w3.org/2000/svg" p-id="3132" xmlns:xlink="http://www.w3.org/1999/xlink" width="200" height="200"><defs><style type="text/css"></style></defs><path d="M785.408 37.376h-547.84c-56.32 0-102.4 46.08-102.4 103.424v742.4c0 57.344 46.08 103.424 103.424 103.424h546.304c57.344 0 103.424-46.08 103.424-103.424V140.8c0-57.344-46.08-103.424-102.912-103.424zM331.776 424.448c0-1.024 1.024-1.024 1.024-1.536l233.472-275.968c1.024-1.024 2.56-2.56 3.584-3.072 1.536-1.536 8.192-4.608 15.36-4.608 6.144 0 12.8 2.56 16.384 7.168 4.608 5.632 6.144 13.312 5.632 22.528v1.536L575.488 325.12l122.368 1.024c11.776 1.024 16.384 8.192 17.92 10.24 4.608 10.24-1.024 20.48-2.56 22.528-1.024 1.024-1.024 1.536-1.536 2.56L439.296 650.24c-1.536 1.536-3.072 3.072-5.632 3.584-4.608 2.56-9.216 3.072-13.312 3.072-6.144 0-12.8-2.56-16.384-7.168-6.144-7.168-5.632-15.36-5.632-17.92 0-1.024 1.024-2.56 1.024-3.072l59.392-173.056H350.208c-12.8 0-17.92-7.168-20.48-10.752-4.096-6.656-2.56-14.848 2.048-20.48z m517.12 340.992H176.64v-40.96h673.28v40.96h-1.024z m-569.344 88.576c0 19.968-15.872 35.84-35.84 35.84s-35.84-15.872-35.84-35.84 15.872-35.84 35.84-35.84 35.84 16.384 35.84 35.84z m108.032 0c0 19.968-15.872 35.84-35.84 35.84-19.456 0-35.84-15.872-35.84-35.84s16.384-35.84 35.84-35.84c19.968 0 35.84 16.384 35.84 35.84z" p-id="3133" fill="#1296db"></path></svg>