<?xml version="1.0" standalone="no"?><!DOCTYPE svg PUBLIC "-//W3C//DTD SVG 1.1//EN" "http://www.w3.org/Graphics/SVG/1.1/DTD/svg11.dtd"><svg t="1620880439103" class="icon" viewBox="0 0 1024 1024" version="1.1" xmlns="http://www.w3.org/2000/svg" p-id="17219" xmlns:xlink="http://www.w3.org/1999/xlink" width="200" height="200"><defs><style type="text/css"></style></defs><path d="M563.2 401.92H460.8c-33.28 0-58.88 25.6-58.88 58.88v102.4c0 33.28 25.6 58.88 58.88 58.88h102.4c33.28 0 58.88-25.6 58.88-58.88V460.8c0-30.72-28.16-58.88-58.88-58.88z" p-id="17220" fill="#1296db"></path><path d="M954.88 555.52c23.04 0 43.52-17.92 43.52-43.52s-17.92-43.52-43.52-43.52h-79.36V409.6h79.36c23.04 0 43.52-17.92 43.52-43.52 0-23.04-17.92-43.52-43.52-43.52h-81.92c-7.68-92.16-79.36-163.84-171.52-174.08V69.12c0-23.04-17.92-43.52-43.52-43.52S614.4 43.52 614.4 69.12v79.36h-61.44V69.12c2.56-25.6-17.92-43.52-40.96-43.52s-43.52 17.92-43.52 43.52v79.36H409.6V69.12c0-25.6-20.48-43.52-43.52-43.52s-43.52 17.92-43.52 43.52v81.92c-92.16 7.68-163.84 79.36-174.08 171.52H69.12c-23.04 0-43.52 17.92-43.52 43.52 0 23.04 17.92 43.52 43.52 43.52h79.36v61.44H69.12c-23.04 0-40.96 20.48-40.96 43.52 0 23.04 17.92 40.96 40.96 40.96h79.36v58.88H69.12c-25.6 0-43.52 20.48-43.52 43.52s17.92 43.52 43.52 43.52h81.92c7.68 92.16 81.92 166.4 174.08 174.08v81.92c0 23.04 17.92 43.52 43.52 43.52s43.52-17.92 43.52-43.52v-79.36h61.44v79.36c0 23.04 17.92 43.52 43.52 43.52 23.04 0 43.52-17.92 43.52-43.52v-79.36h53.76v79.36c0 23.04 17.92 43.52 43.52 43.52s43.52-17.92 43.52-43.52v-81.92c92.16-7.68 166.4-81.92 174.08-174.08h81.92c23.04 0 43.52-17.92 43.52-43.52s-20.48-43.52-46.08-43.52h-79.36v-61.44h79.36zM785.92 640c0 79.36-66.56 145.92-145.92 145.92H384c-79.36 0-145.92-66.56-145.92-145.92V384c0-79.36 66.56-145.92 145.92-145.92h256c79.36 0 145.92 66.56 145.92 145.92v256z" p-id="17221" fill="#1296db"></path></svg>